<svg width="583" height="110" viewBox="0 0 583 110" fill="none" xmlns="http://www.w3.org/2000/svg">
<path d="M24.65 109H8.9C5.5 109 3.25 108.45 2.15 107.35C1.15 106.25 0.65 103.95 0.65 100.45V9.1C0.65 5.6 1.15 3.3 2.15 2.2C3.25 1.09999 5.5 0.549993 8.9 0.549993H24.65V109ZM71 88V100.75C71 104.15 70.45 106.4 69.35 107.5C68.25 108.5 65.95 109 62.45 109H30.65V88H71ZM62 43.75V52.75C62 56.35 61.65 58.65 60.95 59.65C60.25 60.55 58.25 61 54.95 61H30.65V43.75H62ZM69.5 0.549993V13.3C69.5 16.7 68.95 18.95 67.85 20.05C66.75 21.05 64.45 21.55 60.95 21.55H30.65V0.549993H69.5ZM95.7652 0.549993C99.1652 0.549993 101.465 1.09999 102.665 2.2C103.965 3.3 104.865 5.6 105.365 9.1L115.265 88.9C115.565 91.3 116.215 92.85 117.215 93.55C118.215 94.25 119.815 94.65 122.015 94.75L121.865 109H115.265C106.465 109 100.665 106.85 97.8652 102.55C96.3652 100.25 95.3152 98 94.7152 95.8C94.1152 93.5 93.5652 90.3 93.0652 86.2L81.3652 0.549993H95.7652ZM134.915 109H125.615L141.965 9.1C142.365 5.69999 143.215 3.44999 144.515 2.35C145.815 1.14999 148.165 0.549993 151.565 0.549993H165.815L150.815 89.2C150.115 93 149.515 95.8 149.015 97.6C148.615 99.4 147.865 101.35 146.765 103.45C145.665 105.55 144.165 107 142.265 107.8C140.365 108.6 137.915 109 134.915 109ZM203.361 109H187.611C184.211 109 181.961 108.45 180.861 107.35C179.861 106.25 179.361 103.95 179.361 100.45V9.1C179.361 5.6 179.861 3.3 180.861 2.2C181.961 1.09999 184.211 0.549993 187.611 0.549993H203.361V109ZM249.711 88V100.75C249.711 104.15 249.161 106.4 248.061 107.5C246.961 108.5 244.661 109 241.161 109H209.361V88H249.711ZM240.711 43.75V52.75C240.711 56.35 240.361 58.65 239.661 59.65C238.961 60.55 236.961 61 233.661 61H209.361V43.75H240.711ZM248.211 0.549993V13.3C248.211 16.7 247.661 18.95 246.561 20.05C245.461 21.05 243.161 21.55 239.661 21.55H209.361V0.549993H248.211ZM348.576 0.549993V100.45C348.576 103.95 348.026 106.25 346.926 107.35C345.926 108.45 343.726 109 340.326 109H319.026C313.126 109 309.226 108.1 307.326 106.3C305.526 104.5 303.926 99.85 302.526 92.35C299.726 77.55 295.676 53.65 290.376 20.65C289.976 18.15 289.376 16.55 288.576 15.85C287.876 15.15 286.626 14.75 284.826 14.65H266.376V0.549993H298.926C301.426 0.549993 303.426 0.849995 304.926 1.45C306.426 2.05 307.626 3.35 308.526 5.34999C309.526 7.24999 310.176 9.09999 310.476 10.9C310.876 12.7 311.276 14.8 311.676 17.2C312.176 20.1 312.876 24.35 313.776 29.95C315.476 41.25 318.126 57.2 321.726 77.8C323.126 86.6 324.076 91.55 324.576 92.65C325.176 93.65 326.176 94.25 327.576 94.45V6.55C327.576 4.75 328.076 3.3 329.076 2.2C330.076 1.09999 331.376 0.549993 332.976 0.549993H348.576ZM266.376 19.9H281.976C283.576 19.9 284.876 20.45 285.876 21.55C286.876 22.65 287.376 24.1 287.376 25.9V100.45C287.376 103.85 286.926 106.15 286.026 107.35C285.126 108.45 283.326 109 280.626 109H266.376V19.9ZM395.884 109H394.084C390.084 109 386.734 108.7 384.034 108.1C381.434 107.5 379.134 106.3 377.134 104.5C375.234 102.6 373.734 100.5 372.634 98.2C371.634 95.9 370.834 92.45 370.234 87.85C369.334 80.95 368.884 71.7 368.884 60.1C368.884 48.4 368.934 40.15 369.034 35.35C369.234 30.55 369.634 25.9 370.234 21.4C370.834 16.8 371.634 13.4 372.634 11.2C373.734 8.9 375.234 6.85 377.134 5.05C379.134 3.15 381.434 1.95 384.034 1.45C386.734 0.849995 390.084 0.549993 394.084 0.549993H395.884V109ZM401.884 0.549993H420.934C428.234 0.549993 433.734 1.79999 437.434 4.3C441.234 6.8 443.134 11.15 443.134 17.35V30.85C443.134 32.95 442.434 34 441.034 34H422.134C420.734 34 419.884 33.8 419.584 33.4C419.284 33 419.134 32.15 419.134 30.85V19.15C419.134 17.55 418.884 16.45 418.384 15.85C417.984 15.15 416.884 14.8 415.084 14.8H401.884V0.549993ZM422.134 75.55H441.034C442.434 75.55 443.134 76.6 443.134 78.7V92.2C443.134 98.4 441.234 102.75 437.434 105.25C433.734 107.75 428.234 109 420.934 109H401.884V94.75H415.084C416.884 94.75 417.984 94.45 418.384 93.85C418.884 93.15 419.134 92 419.134 90.4V78.7C419.134 77.4 419.284 76.55 419.584 76.15C419.884 75.75 420.734 75.55 422.134 75.55ZM485.49 109H469.74C466.34 109 464.09 108.45 462.99 107.35C461.99 106.25 461.49 103.95 461.49 100.45V9.1C461.49 5.6 461.99 3.3 462.99 2.2C464.09 1.09999 466.34 0.549993 469.74 0.549993H485.49V109ZM532.7 0.549993V90.4C532.7 91.9 533.05 93 533.75 93.7C534.55 94.4 536.25 94.75 538.85 94.75H549.95V109H530.9C526.9 109 523.55 108.7 520.85 108.1C518.25 107.5 515.95 106.3 513.95 104.5C512.05 102.6 510.55 100.5 509.45 98.2C508.45 95.9 507.65 92.45 507.05 87.85C506.15 80.95 505.7 71.7 505.7 60.1C505.7 48.4 505.75 40.15 505.85 35.35C506.05 30.55 506.45 25.9 507.05 21.4C507.65 16.8 508.45 13.4 509.45 11.2C510.55 8.9 512.05 6.85 513.95 5.05C515.95 3.15 518.25 1.95 520.85 1.45C523.55 0.849995 526.9 0.549993 530.9 0.549993H532.7ZM538.7 0.699991H557.75C561.75 0.699991 565.05 0.999993 567.65 1.6C570.35 2.2 572.65 3.44999 574.55 5.34999C576.55 7.14999 578.05 9.19999 579.05 11.5C580.15 13.8 581 17.25 581.6 21.85C582.5 28.75 582.95 38.05 582.95 49.75C582.95 61.35 582.85 69.55 582.65 74.35C582.55 79.15 582.2 83.85 581.6 88.45C581 92.95 580.15 96.35 579.05 98.65C578.05 100.85 576.55 102.9 574.55 104.8C572.65 106.6 570.35 107.8 567.65 108.4C565.05 108.9 561.75 109.15 557.75 109.15H555.95V19.3C555.95 17.8 555.55 16.7 554.75 16C554.05 15.3 552.4 14.95 549.8 14.95H538.7V0.699991Z" fill="url(#paint0_linear_236_51)"/>
<defs>
<linearGradient id="paint0_linear_236_51" x1="-10" y1="36" x2="3547" y2="36" gradientUnits="userSpaceOnUse">
<stop stop-color="#A14BFD"/>
<stop offset="0.498484" stop-color="white"/>
</linearGradient>
</defs>
</svg>
